<svg width="25" height="27" viewBox="0 0 25 27" fill="none" xmlns="http://www.w3.org/2000/svg">
<path d="M24.6913 11.0007C24.8019 11.0007 24.8916 11.0979 24.8916 11.218V13.4996C24.8916 14.3535 24.8185 15.1885 24.6783 15.9984C23.5933 22.2899 18.4832 27.0446 12.3581 26.9987C5.48519 26.9474 -0.0151855 20.924 3.14975e-05 13.4691C0.0151512 6.02766 5.58164 0 12.4458 0C15.8088 0 18.86 1.44709 21.1002 3.7977C21.1811 3.88254 21.1832 4.02239 21.1036 4.10866L18.1278 7.33648C18.0511 7.41959 17.9274 7.42175 17.8489 7.3407C16.4428 5.88902 14.5405 4.99779 12.4458 4.99779C8.12035 4.99779 4.63722 8.74897 4.60786 13.4405C4.57835 18.1629 8.09896 22.0013 12.4458 22.0013C15.9727 22.0013 18.9557 19.4741 19.9394 15.9984H12.6462C12.5355 15.9984 12.4458 15.9012 12.4458 15.7811V11.2179C12.4458 11.0979 12.5355 11.0006 12.6462 11.0006H24.6913V11.0007Z" fill="#2196F3"/>
<path d="M24.6915 11.0015H23.189C23.2996 11.0015 23.3893 11.0988 23.3893 11.2189V13.5004C23.3893 14.3544 23.3162 15.1894 23.1759 15.9993C22.1408 22.0015 17.4423 26.6048 11.6939 26.9756C11.9139 26.9897 12.1353 26.9979 12.3582 26.9996C18.4834 27.0454 23.5935 22.2908 24.6784 15.9993C24.8187 15.1894 24.8918 14.3544 24.8918 13.5004V11.2188C24.8918 11.0988 24.8021 11.0015 24.6915 11.0015Z" fill="#1E88E5"/>
<path d="M5.32651 9.93915L1.54667 6.97684C3.66723 2.81671 7.75354 0 12.4459 0C15.8089 0 18.8601 1.44709 21.1003 3.7977C21.1812 3.88255 21.1833 4.02239 21.1037 4.10866L18.1279 7.33648C18.0514 7.41943 17.9276 7.42201 17.8493 7.34112C16.4433 5.88918 14.5407 4.99784 12.4459 4.99784C9.28914 4.99784 6.56808 7.02193 5.32651 9.93915Z" fill="#F44336"/>
<path d="M4.23554 9.08381L5.32674 9.93898C6.45999 7.2763 8.82605 5.35862 11.6307 5.04407C11.6518 5.04159 11.6721 5.03859 11.6936 5.03637C11.4468 5.01095 11.1966 4.99767 10.9436 4.99767C8.09195 4.99767 5.60667 6.62832 4.23554 9.08381Z" fill="#E53935"/>
<path d="M19.5982 3.7977C19.6791 3.88255 19.6812 4.02239 19.6016 4.10872L17.1862 6.72863C17.4176 6.91952 17.6391 7.1237 17.8493 7.34075C17.9278 7.4218 18.0516 7.41964 18.1283 7.33653L21.1041 4.10872C21.1837 4.02239 21.1816 3.8826 21.1007 3.7977C18.8605 1.44709 15.8092 0 12.4463 0C12.1939 0 11.9436 0.00912274 11.6949 0.0252062C14.7597 0.223217 17.526 1.62343 19.5982 3.7977Z" fill="#E53935"/>
<path d="M21.576 22.674C19.3032 25.3342 16.0537 26.9993 12.4462 26.9993C7.57357 26.9993 3.35502 23.962 1.31206 19.5373L5.17099 16.6689C6.32899 19.7942 9.1502 22.0014 12.4462 22.0014C14.5146 22.0014 16.3958 21.1322 17.7962 19.7122L21.576 22.674Z" fill="#4CAF50"/>
<path d="M5.17122 16.6689L4.0333 17.5147C5.35494 20.1853 7.95393 22.0014 10.9439 22.0014C11.1967 22.0014 11.4467 21.9879 11.6934 21.9625C8.72542 21.6556 6.23991 19.5534 5.17122 16.6689Z" fill="#43A047"/>
<path d="M12.4458 26.9995C16.0533 26.9995 19.3028 25.3345 21.5756 22.6742L20.6498 21.9488C18.5157 24.8296 15.3143 26.7407 11.6964 26.9749C11.9444 26.991 12.1942 26.9995 12.4458 26.9995Z" fill="#43A047"/>
<path d="M4.60773 13.5007C4.60773 14.6208 4.80754 15.6905 5.17066 16.6699L1.31167 19.5382C0.472309 17.7216 0 15.6709 0 13.5007C0 11.1349 0.560937 8.91134 1.54659 6.97795L5.32642 9.94026C4.86515 11.0229 4.60773 12.2295 4.60773 13.5007Z" fill="#FFC107"/>
<path d="M4.03284 17.5151L5.17076 16.6694C4.80764 15.6899 4.60783 14.6202 4.60783 13.5001C4.60783 12.2289 4.86525 11.0223 5.32653 9.93968L4.23533 9.08451C3.52674 10.3535 3.1155 11.8426 3.10548 13.4411C3.09625 14.9152 3.43301 16.3032 4.03284 17.5151Z" fill="#FFB300"/>
</svg>
