<svg width="878" height="886" viewBox="0 0 878 886" fill="none" xmlns="http://www.w3.org/2000/svg">
<path opacity="0.3" d="M438.951 886C681.377 886 877.902 866.232 877.902 841.847C877.902 817.462 681.377 797.694 438.951 797.694C196.525 797.694 0 817.462 0 841.847C0 866.232 196.525 886 438.951 886Z" fill="#605CFF"/>
<path d="M691.72 395.079L681.859 396.717L693.27 477.528L703.131 475.889L691.72 395.079Z" fill="#99B2C6"/>
<path d="M691.713 395.136L681.96 396.819L684.176 388.644L685.285 384.316L687.502 387.923L691.713 395.136Z" fill="#FF8C64"/>
<path d="M702.349 470.137L692.489 471.775L693.328 477.717L703.188 476.079L702.349 470.137Z" fill="#35252F"/>
<path d="M703.239 480.734L694.594 482.177C694.15 482.177 693.929 481.936 693.929 481.455L693.264 477.368L703.239 475.685L703.904 479.772C703.904 480.253 703.683 480.734 703.239 480.734Z" fill="#EF452F"/>
<path d="M687.499 387.923L684.174 388.644L685.282 384.316L687.499 387.923Z" fill="#35252F"/>
<path d="M692.515 471.78L702.376 470.142L701.772 465.864L691.911 467.502L692.515 471.78Z" fill="#F68407"/>
<path d="M684.841 400.425L693.265 460.296C693.265 460.777 693.709 461.017 694.152 461.017C694.595 461.017 694.817 460.536 694.817 460.055L686.393 400.185C686.393 399.704 685.95 399.463 685.507 399.463C685.063 399.463 684.841 399.944 684.841 400.425Z" fill="#99B2C6"/>
<path d="M688.83 399.705L697.254 459.575C697.254 460.056 697.697 460.297 698.141 460.297C698.584 460.297 698.806 459.816 698.806 459.335L690.382 399.464C690.382 398.983 689.939 398.743 689.495 398.743C689.052 398.743 688.83 399.224 688.83 399.705Z" fill="#99B2C6"/>
<path d="M709.55 395.359L699.575 395.394L699.821 477.145L709.796 477.11L709.55 395.359Z" fill="#2FE6A7"/>
<path d="M709.669 395.374L699.693 395.615L703.018 387.68L704.57 383.833L706.344 387.68L709.669 395.374Z" fill="#FF8C64"/>
<path d="M709.886 471.338L699.91 471.374L699.928 477.385L709.904 477.349L709.886 471.338Z" fill="#35252F"/>
<path d="M709.227 481.936H700.581C700.138 481.936 699.916 481.695 699.916 481.214V477.127H709.892V481.214C709.892 481.695 709.67 481.936 709.227 481.936Z" fill="#EF452F"/>
<path d="M706.346 387.682H703.021L704.573 383.835L706.346 387.682Z" fill="#35252F"/>
<path d="M699.907 471.377L709.883 471.342L709.869 467.014L699.894 467.049L699.907 471.377Z" fill="#3C7341"/>
<path d="M702.13 399.462L702.352 460.054C702.352 460.535 702.795 460.775 703.017 460.775C703.46 460.775 703.682 460.294 703.682 460.054L703.46 399.462C703.46 398.981 703.017 398.741 702.795 398.741C702.574 398.741 702.13 398.981 702.13 399.462Z" fill="#2FE6A7"/>
<path d="M706.122 399.464L706.344 460.056C706.344 460.537 706.787 460.777 707.009 460.777C707.453 460.777 707.674 460.296 707.674 460.056L707.453 399.464C707.453 398.983 707.009 398.743 706.787 398.743C706.344 398.743 706.122 398.983 706.122 399.464Z" fill="#2FE6A7"/>
<path d="M726.923 396.605L717.047 395.082L706.442 476.024L716.319 477.547L726.923 396.605Z" fill="#605CFF"/>
<path d="M726.96 396.579L716.984 395.136L721.196 387.923L723.413 384.316L724.743 388.404L726.96 396.579Z" fill="#FF8C64"/>
<path d="M717.124 471.732L707.247 470.21L706.467 476.161L716.344 477.684L717.124 471.732Z" fill="#35252F"/>
<path d="M714.989 482.177L706.344 480.734C705.9 480.734 705.679 480.254 705.679 480.013L706.122 475.926L716.097 477.368L715.654 481.456C715.654 481.937 715.432 482.177 714.989 482.177Z" fill="#EF452F"/>
<path d="M724.743 388.404L721.196 387.923L723.413 384.316L724.743 388.404Z" fill="#35252F"/>
<path d="M707.181 470.038L717.057 471.561L717.619 467.276L707.742 465.753L707.181 470.038Z" fill="#1B48CA"/>
<path opacity="0.6" d="M718.978 399.464L711.219 459.335C711.219 459.816 711.441 460.297 711.884 460.297C712.328 460.297 712.771 460.056 712.771 459.575L720.53 399.705C720.53 399.224 720.308 398.743 719.865 398.743C719.421 398.743 718.978 398.983 718.978 399.464Z" fill="#605CFF"/>
<path opacity="0.6" d="M722.749 400.185L714.99 460.056C714.99 460.537 715.212 461.018 715.655 461.018C716.098 461.018 716.542 460.777 716.542 460.297L724.3 400.426C724.3 399.945 724.079 399.464 723.635 399.464C723.192 399.224 722.97 399.705 722.749 400.185Z" fill="#605CFF"/>
<path d="M730.287 427.837L729.622 432.165L729.179 436.252L728.514 442.264L728.07 446.111L727.184 452.362L726.74 456.209L726.075 462.22L725.632 466.067L724.967 472.319L724.524 476.166L723.637 482.418L723.194 486.024L722.75 489.391H683.514L683.07 486.024L682.627 482.418L681.962 476.166L681.518 472.319L680.853 466.067L680.41 462.22L679.523 456.209L679.08 452.362L678.415 446.111L677.972 442.264L677.307 436.252L676.863 432.165L676.198 427.837H730.287Z" fill="#FF69B4"/>
<path d="M729.621 432.164L729.178 436.252H677.305L676.862 432.164H729.621Z" fill="#FF69B4"/>
<path d="M728.514 442.264L728.071 446.111H678.415L677.972 442.264H728.514Z" fill="#FF69B4"/>
<path d="M727.183 452.36L726.739 456.207H679.522L679.079 452.36H727.183Z" fill="#FF69B4"/>
<path d="M726.073 462.22L725.629 466.067H680.851L680.407 462.22H726.073Z" fill="#FF69B4"/>
<path d="M724.965 472.32L724.522 476.167H681.96L681.516 472.32H724.965Z" fill="#FF69B4"/>
<path d="M723.634 482.416L723.191 486.022H683.067L682.624 482.416H723.634Z" fill="#FF69B4"/>
<path opacity="0.2" d="M288.969 145.95C323.861 145.95 352.147 115.269 352.147 77.4229C352.147 39.5768 323.861 8.89638 288.969 8.89638C254.077 8.89638 225.791 39.5768 225.791 77.4229C225.791 115.269 254.077 145.95 288.969 145.95Z" fill="#605CFF"/>
<path d="M288.969 137.053C323.861 137.053 352.147 106.373 352.147 68.5266C352.147 30.6804 323.861 0 288.969 0C254.077 0 225.791 30.6804 225.791 68.5266C225.791 106.373 254.077 137.053 288.969 137.053Z" fill="#605CFF"/>
<path d="M288.967 124.308C317.341 124.308 340.396 99.3021 340.396 68.5252C340.396 37.7484 317.341 12.7422 288.967 12.7422C260.592 12.7422 237.538 37.7484 237.538 68.5252C237.538 99.3021 260.592 124.308 288.967 124.308Z" fill="white"/>
<path opacity="0.2" d="M237.538 68.5252C237.538 69.9679 237.538 71.4105 237.76 72.8532C239.755 44.2404 262.144 21.3982 288.967 21.3982C316.011 21.3982 338.179 43.9999 340.174 72.8532C340.174 71.4105 340.396 69.9679 340.396 68.5252C340.396 37.7484 317.341 12.7422 288.967 12.7422C260.592 12.7422 237.538 37.7484 237.538 68.5252Z" fill="#605CFF"/>
<path d="M288.969 74.2974C289.412 74.2974 289.855 74.0569 290.077 73.8165L315.348 37.0285C315.791 36.3072 315.57 35.5859 315.126 35.105C314.461 34.6241 313.796 34.8645 313.353 35.3454L288.747 71.412L260.594 57.9472C259.929 57.7067 259.264 57.9472 258.821 58.6685C258.599 59.3898 258.821 60.1112 259.486 60.5921L288.303 74.2974C288.525 74.2974 288.747 74.2974 288.969 74.2974Z" fill="#1A202C"/>
<path d="M667.808 443.892L615.031 637.345C612.604 645.899 605.324 651.821 597.236 651.821L382.89 652.479C371.566 652.479 362.466 642.17 363.073 629.888C363.679 618.482 372.374 609.49 382.89 609.49H464.786L530.505 411.212H645.16C660.933 411.212 672.257 427.662 667.808 443.892Z" fill="#99B2C6"/>
<path d="M535.156 626.378C508.242 626.378 486.423 625.985 486.423 625.501C486.423 625.016 508.242 624.623 535.156 624.623C562.071 624.623 583.89 625.016 583.89 625.501C583.89 625.985 562.071 626.378 535.156 626.378Z" fill="#1A202C"/>
<path d="M652.035 417.354C651.631 417.134 637.071 463.414 619.479 520.879C601.886 578.125 587.934 624.624 588.338 624.843C588.742 625.063 603.302 578.783 620.894 521.318C638.487 464.072 652.44 417.354 652.035 417.354Z" fill="#1A202C"/>
<path d="M495.321 823.779L508.465 823.341V651.821H495.321V823.779Z" fill="#FFD66B"/>
<path d="M562.657 822.901H441.127L496.129 802.284H509.273L562.657 822.901Z" fill="#FFD66B"/>
<path d="M593.396 366.685L573.377 475.694L577.017 557.505L441.736 533.159L446.994 461.657L447.196 402.436L414.033 472.185L388.15 418.009L435.468 325.231C444.163 315.58 454.273 308.342 466.406 303.517C472.27 301.104 478.539 299.788 485.819 299.569C501.389 304.833 516.96 304.833 532.732 299.569C534.552 299.788 537.181 300.008 540.619 300.446C540.821 300.446 541.023 300.446 541.225 300.446C569.939 304.175 591.779 330.056 593.396 361.421V366.685Z" fill="#FF69B4"/>
<path d="M540.416 300.446C540.416 300.446 596.025 300.884 602.9 364.491L603.911 411.209L555.987 410.771L540.416 300.446Z" fill="#FF69B4"/>
<path d="M407.561 382.258C407.561 382.697 451.24 383.135 505.231 383.135C559.222 383.135 602.9 382.697 602.9 382.258C602.9 381.819 559.222 381.381 505.231 381.381C451.24 381.381 407.561 381.819 407.561 382.258Z" fill="white"/>
<path d="M407.561 392.347C407.561 392.786 451.24 393.225 505.231 393.225C559.222 393.225 602.9 392.786 602.9 392.347C602.9 391.909 559.222 391.47 505.231 391.47C451.24 391.47 407.561 391.909 407.561 392.347Z" fill="white"/>
<path d="M410.797 373.924C410.797 374.362 453.868 374.801 506.848 374.801C559.828 374.801 602.9 374.362 602.9 373.924C602.9 373.485 559.828 373.046 506.848 373.046C453.666 373.046 410.797 373.485 410.797 373.924Z" fill="white"/>
<path d="M447.803 472.186C448.207 472.186 448.005 446.305 447.398 414.501C446.792 382.698 445.983 356.816 445.376 356.816C444.972 356.816 445.174 382.698 445.781 414.501C446.589 446.305 447.398 472.186 447.803 472.186Z" fill="#1A202C"/>
<path d="M466.81 430.293C466.81 430.293 440.522 432.267 435.871 439.944C431.221 447.401 423.941 468.896 426.57 469.115C429.401 469.334 431.221 467.58 431.221 467.58L438.5 453.762C438.5 453.762 437.287 467.141 441.736 467.36C445.982 467.58 467.417 472.186 467.417 472.186L466.81 430.293Z" fill="#FFBE9D"/>
<path d="M603.709 398.707V472.184C602.9 489.292 587.936 501.575 572.568 498.066L466.608 474.378L466.811 427.221L558.211 446.303L559.424 396.514L603.709 398.707Z" fill="#FF69B4"/>
<path d="M543.247 492.145C543.247 492.145 542.842 491.925 541.831 491.706C540.82 491.487 539.405 491.048 537.787 490.609C534.147 489.732 528.89 488.635 522.217 487.1C508.668 484.029 489.66 479.862 467.012 474.817L467.619 475.475C467.619 460.78 467.619 444.33 467.619 427.003L466.81 427.88C472.876 429.196 479.145 430.512 485.414 431.828C512.106 437.311 537.18 442.575 558.211 446.962L559.019 447.181V446.304C558.413 424.371 557.806 406.166 557.402 393.225C557.199 386.864 556.997 382.039 556.795 378.53C556.795 376.994 556.593 375.678 556.593 374.582C556.593 373.704 556.391 373.266 556.391 373.266C556.391 373.266 556.391 373.704 556.391 374.582C556.391 375.678 556.391 376.775 556.391 378.53C556.391 382.039 556.593 387.084 556.593 393.444C556.795 406.385 557.199 424.59 557.806 446.523L558.615 445.865C537.585 441.479 512.51 436.215 485.818 430.512C479.347 429.196 473.079 427.88 467.215 426.564L466.406 426.345V427.222C466.406 444.549 466.406 460.78 466.406 475.695V476.353L467.012 476.572C489.66 481.397 508.668 485.345 522.217 488.197C528.89 489.513 534.147 490.609 537.787 491.267C539.607 491.487 540.82 491.925 542.033 492.145C542.842 492.145 543.247 492.145 543.247 492.145Z" fill="#1A202C"/>
<path d="M482.38 300.447C482.38 300.447 482.178 300.885 481.976 301.543C481.774 302.201 481.369 303.298 481.167 304.833C480.56 307.685 480.358 312.071 481.571 317.116C482.785 322.161 486.02 327.864 490.671 332.47C495.524 337.295 502.399 340.366 509.881 340.366C517.363 340.366 524.441 337.076 528.889 332.031C533.338 326.986 535.36 320.625 535.967 315.361C536.573 310.097 535.562 305.711 534.551 303.079C534.147 301.763 533.54 300.666 533.136 300.008C532.731 299.35 532.529 298.911 532.529 299.131C532.327 299.131 533.136 300.666 533.945 303.298C534.753 305.93 535.36 310.097 534.753 315.142C534.147 320.187 532.125 326.109 527.676 330.934C523.43 335.76 516.756 338.83 509.679 338.83C502.602 338.83 495.928 335.979 491.278 331.373C486.627 326.986 483.593 321.722 482.178 316.677C480.762 311.852 480.965 307.465 481.167 304.833C482.178 301.982 482.582 300.447 482.38 300.447Z" fill="#263238"/>
<path d="M477.324 478.108C477.526 478.108 477.526 475.256 477.324 470.87C477.122 466.483 476.919 460.342 476.919 453.542C476.919 446.743 476.919 440.602 477.122 436.215C477.324 431.828 477.324 428.977 477.122 428.977C476.919 428.977 476.515 431.609 476.11 436.215C475.706 440.602 475.504 446.962 475.504 453.762C475.504 460.561 475.908 466.702 476.313 471.308C476.717 475.476 477.122 478.327 477.324 478.108Z" fill="#FAFAFA"/>
<path d="M482.785 479.424C482.987 479.424 482.987 476.572 482.987 472.186C482.987 467.141 482.785 461.219 482.785 454.858C482.785 448.498 482.785 442.576 482.785 437.531C482.785 433.144 482.785 430.293 482.583 430.293C482.381 430.293 481.976 432.925 481.774 437.531C481.572 441.918 481.369 448.059 481.369 454.858C481.369 461.658 481.572 467.799 481.976 472.186C482.178 476.792 482.583 479.424 482.785 479.424Z" fill="#FAFAFA"/>
<path d="M376.621 771.357L356.602 831.236L328.09 873.567C326.068 876.638 326.877 881.024 329.708 882.998C331.325 884.095 333.348 884.314 335.167 883.437C346.694 878.173 388.754 859.091 389.967 854.704C391.383 849.44 418.479 785.175 418.479 785.175L376.621 771.357Z" fill="#FF69B4"/>
<g opacity="0.6">
<g opacity="0.6">
<path d="M329.91 883L391.585 850.758L390.776 853.17C389.967 855.364 388.552 857.118 386.732 858.215C381.676 861.066 367.522 868.962 335.774 883.438C333.752 884.316 331.528 884.096 329.91 883Z" fill="#93079F"/>
</g>
</g>
<g opacity="0.6">
<g opacity="0.6">
<g opacity="0.6">
<path opacity="0.6" d="M387.339 826.85C385.519 827.289 384.306 829.263 384.71 831.237C385.115 833.211 386.934 834.527 388.754 834.088C390.574 833.649 391.99 831.237 391.585 829.482C390.979 827.727 388.754 826.192 387.137 827.069" fill="white"/>
</g>
</g>
</g>
<path d="M351.749 862.381C351.345 862.381 351.345 858.871 348.514 855.801C345.885 852.73 342.65 852.291 342.65 851.853C342.65 851.633 343.458 851.414 344.874 851.853C346.289 852.291 347.907 853.169 349.525 854.923C350.94 856.678 351.749 858.652 351.951 860.187C352.154 861.503 351.951 862.381 351.749 862.381Z" fill="#1A202C"/>
<path d="M344.875 868.742C344.471 868.961 343.46 866.11 341.033 864.136C338.607 861.942 335.978 861.504 335.978 861.065C335.978 860.626 339.011 860.626 341.842 863.039C344.673 865.232 345.28 868.522 344.875 868.742Z" fill="#1A202C"/>
<path d="M362.669 855.144C362.264 855.363 360.646 851.196 357.007 847.687C353.367 843.958 349.525 842.642 349.727 842.203C349.727 841.765 354.176 842.642 358.018 846.59C361.86 850.538 362.871 855.144 362.669 855.144Z" fill="#1A202C"/>
<path d="M370.15 837.597C369.948 837.816 367.319 835.184 363.477 833.429C359.635 831.455 356.198 831.236 356.198 831.017C356.198 830.578 359.838 830.359 364.084 832.333C368.128 834.087 370.353 837.377 370.15 837.597Z" fill="#1A202C"/>
<path d="M376.419 820.269C376.217 820.489 373.79 817.199 369.544 815.663C365.298 813.909 361.658 815.005 361.658 814.567C361.658 814.347 362.467 813.909 364.084 813.689C365.702 813.47 367.926 813.47 370.151 814.347C372.375 815.225 374.195 816.541 375.206 817.857C376.217 819.173 376.419 820.05 376.419 820.269Z" fill="#1A202C"/>
<path d="M370.757 812.374C370.757 812.374 370.757 811.496 371.566 810.18C372.172 808.864 373.386 806.89 375.408 804.916C376.419 804.039 377.43 802.942 379.25 802.723C380.059 802.723 381.272 803.381 381.676 804.258C382.081 805.355 381.879 806.452 381.676 807.329C380.261 811.058 376.014 813.47 371.97 812.374C367.926 811.277 365.297 807.329 364.893 803.381C364.893 802.504 364.893 801.188 365.702 800.53C366.51 799.652 367.724 799.652 368.533 800.31C370.15 801.188 370.757 802.723 371.364 803.82C372.577 806.232 373.183 808.426 373.386 809.961C373.588 811.496 373.588 812.374 373.588 812.374C373.386 812.374 373.184 808.864 370.555 804.258C369.948 803.162 369.139 801.846 367.926 801.188C367.319 800.968 366.713 800.968 366.51 801.407C366.106 801.846 365.904 802.504 366.106 803.381C366.51 806.671 368.937 810.18 372.375 811.058C375.812 811.935 379.654 809.961 380.665 806.89C380.868 806.232 381.07 805.355 380.868 804.697C380.665 804.039 380.261 803.82 379.654 803.82C378.441 803.82 377.228 804.697 376.217 805.574C371.97 809.084 370.959 812.593 370.757 812.374Z" fill="#1A202C"/>
<path d="M292.096 755.784L293.916 804.476C293.916 804.476 249.024 822.681 248.418 831.674L335.37 831.454L335.572 755.565L292.096 755.784Z" fill="#FF69B4"/>
<g opacity="0.6">
<g opacity="0.6">
<path opacity="0.6" d="M320.808 800.309C322.426 800.748 323.639 802.941 323.235 804.696C322.83 806.45 321.01 807.766 319.191 807.328C317.573 806.889 315.955 804.476 316.562 802.722C317.168 800.967 319.393 799.432 321.011 800.528" fill="white"/>
</g>
</g>
<g opacity="0.6">
<path d="M335.37 831.454V823.997L251.654 827.068C251.654 827.068 247.812 828.822 248.216 831.893L335.37 831.454Z" fill="#93079F"/>
</g>
<path d="M292.5 804.037C292.5 804.476 294.724 804.695 296.746 806.231C298.971 807.547 299.982 809.74 300.386 809.521C300.791 809.521 300.184 806.669 297.555 804.914C294.926 802.94 292.298 803.599 292.5 804.037Z" fill="#1A202C"/>
<path d="M283.399 807.985C283.399 808.424 285.219 809.301 286.634 811.056C288.05 813.03 288.454 815.004 288.859 815.004C289.263 815.004 289.465 812.372 287.645 809.959C285.825 807.766 283.399 807.547 283.399 807.985Z" fill="#1A202C"/>
<path d="M278.142 819.829C278.546 819.829 279.153 817.636 277.94 815.004C276.928 812.372 274.906 811.495 274.704 811.933C274.502 812.372 275.715 813.688 276.726 815.662C277.535 817.855 277.737 819.829 278.142 819.829Z" fill="#1A202C"/>
<path d="M293.106 792.851C293.309 793.29 295.331 792.632 297.555 792.851C299.982 793.071 301.801 793.729 302.004 793.509C302.206 793.071 300.386 791.535 297.555 791.316C294.926 790.877 292.904 792.413 293.106 792.851Z" fill="#263238"/>
<g opacity="0.3">
<path opacity="0.3" d="M292.501 765.434L292.703 773.988L335.572 773.549V765.653L292.501 765.434Z" fill="black"/>
</g>
<path d="M292.904 782.982C292.904 783.201 294.522 783.421 297.353 782.982C298.768 782.763 300.184 782.324 302.004 781.447C302.813 781.008 303.622 780.569 304.43 779.911C304.835 779.692 305.239 779.253 305.644 778.815C306.048 778.376 306.453 777.06 305.846 776.402C305.442 775.744 304.633 775.305 304.026 775.305C303.419 775.305 302.813 775.525 302.408 775.525C301.397 775.744 300.588 776.183 299.78 776.621C298.162 777.499 296.746 778.595 295.735 779.473C293.713 781.447 293.107 783.201 293.107 783.421C293.309 783.64 294.32 782.105 296.342 780.35C297.353 779.473 298.768 778.595 300.184 777.937C300.993 777.499 301.802 777.279 302.611 777.06C303.622 776.841 304.228 776.841 304.633 777.279C304.633 777.499 304.633 777.499 304.633 777.718C304.43 777.937 304.026 778.157 303.622 778.595C302.813 779.034 302.004 779.692 301.397 780.131C299.982 781.008 298.364 781.447 297.151 781.885C294.724 782.543 292.904 782.763 292.904 782.982Z" fill="#263238"/>
<path d="M293.511 783.639C293.713 783.639 294.522 782.104 294.724 779.033C294.724 777.498 294.724 775.743 294.118 773.769C293.915 772.892 293.511 771.795 292.904 770.918C292.298 770.04 291.691 768.724 290.073 768.505C289.264 768.505 288.456 769.163 288.253 769.821C288.051 770.479 287.849 770.918 287.849 771.576C287.647 772.672 287.647 773.769 287.849 774.866C288.051 776.84 288.86 778.594 289.669 779.691C291.287 782.104 293.107 782.762 293.107 782.542C293.309 782.323 291.691 781.446 290.478 779.033C289.871 777.936 289.264 776.401 289.062 774.646C289.062 773.769 289.062 772.892 289.062 772.014C289.264 770.918 289.467 770.26 289.871 770.26C290.276 770.26 291.084 770.918 291.489 771.795C291.893 772.672 292.298 773.55 292.5 774.427C293.107 776.182 293.309 777.717 293.309 779.033C293.713 781.884 293.309 783.639 293.511 783.639Z" fill="#263238"/>
<path d="M335.571 522.633C386.934 528.336 455.08 536.013 455.08 536.013L445.778 626.817C445.778 626.817 345.682 598.084 346.289 600.497C347.098 602.909 341.638 793.73 341.638 793.73H281.378L280.165 577.686C279.963 545.005 305.644 519.343 335.571 522.633Z" fill="#1A202C"/>
<path d="M578.228 559.261V587.336C578.228 606.418 558.007 626.816 540.414 626.816H526.664C515.946 626.816 498.96 618.262 490.265 611.463L485.008 607.295L422.119 818.295C422.119 818.295 350.334 804.257 350.334 801.844C350.334 799.432 399.067 629.009 421.513 549.83C430.612 517.588 462.562 498.725 492.085 509.692C493.096 510.13 494.107 510.569 495.118 511.008C527.27 525.265 578.228 559.261 578.228 559.261Z" fill="#1A202C"/>
<path d="M350.536 802.064C350.536 802.064 350.739 801.844 350.941 801.406C351.143 800.748 351.345 800.09 351.75 799.212C352.356 797.238 353.367 794.387 354.581 790.439C357.007 782.762 360.243 771.796 364.287 757.978C372.375 730.561 383.093 692.397 394.821 650.285C400.685 629.229 406.145 609.05 411.2 590.845C413.627 581.633 416.053 573.079 418.278 564.964C419.491 560.796 420.502 557.068 421.513 553.12C422.524 549.391 423.535 545.662 424.749 542.372C427.175 535.792 431.017 530.748 434.859 526.8C438.701 522.852 442.341 520 445.577 517.807C448.61 515.614 451.036 513.859 452.856 512.762C453.665 512.324 454.272 511.885 454.676 511.446C455.081 511.227 455.283 511.008 455.283 511.008C455.283 511.008 455.081 511.008 454.676 511.446C454.07 511.666 453.463 512.104 452.654 512.543C450.834 513.64 448.408 515.175 445.374 517.368C442.139 519.562 438.499 522.413 434.455 526.142C430.613 530.09 426.569 535.134 423.94 541.934C422.524 545.224 421.513 548.952 420.502 552.681C419.491 556.41 418.278 560.358 417.267 564.306C415.042 572.421 412.616 581.195 409.987 590.187C404.932 608.392 399.27 628.571 393.406 649.627C381.677 691.739 371.162 729.684 363.478 757.539C359.636 771.138 356.401 782.324 354.176 790.22C353.165 793.948 352.154 797.019 351.547 798.993C351.345 799.87 351.143 800.748 350.941 801.406C350.536 801.625 350.536 802.064 350.536 802.064Z" fill="#455A64"/>
<path d="M335.37 573.299C334.966 573.518 338.403 579.221 341.234 586.678C344.065 594.135 345.278 600.715 345.885 600.715C346.29 600.715 345.683 593.916 342.65 586.02C339.616 578.124 335.572 572.86 335.37 573.299Z" fill="#455A64"/>
<path d="M323.844 582.071C323.642 582.51 328.899 584.922 334.157 589.528C339.617 594.134 343.054 598.96 343.459 598.74C343.863 598.521 340.83 593.038 335.168 588.212C329.506 583.387 323.844 581.632 323.844 582.071Z" fill="#455A64"/>
<path d="M421.716 818.513C422.12 818.733 439.106 762.144 459.53 692.396C480.155 622.648 496.332 565.841 495.928 565.841C495.524 565.621 478.538 622.209 458.114 691.958C437.69 761.706 421.311 818.294 421.716 818.513Z" fill="#455A64"/>
<path d="M498.758 489.295L293.107 491.488L254.889 373.925L404.324 375.022L439.105 480.74L498.758 481.618V489.295Z" fill="#99B2C6"/>
<path d="M341.639 442.797C337.06 442.797 333.348 438.771 333.348 433.804C333.348 428.838 337.06 424.811 341.639 424.811C346.218 424.811 349.93 428.838 349.93 433.804C349.93 438.771 346.218 442.797 341.639 442.797Z" fill="white"/>
<path d="M515.539 171.26C513.517 163.364 508.26 159.635 501.182 157.003C494.105 154.371 485.814 155.906 479.95 160.732C475.905 164.022 472.872 168.847 468.221 170.602C460.537 173.453 451.438 167.312 443.956 171.04C439.507 173.234 437.08 179.156 438.091 184.2C439.305 189.245 443.956 193.193 448.809 192.974C443.753 194.948 442.136 202.844 445.169 207.669C448.202 212.495 454.269 214.469 459.526 213.372C464.784 212.275 469.435 208.766 473.479 204.818C477.523 200.87 481.163 196.483 485.409 192.974C489.656 189.464 494.913 186.832 500.373 187.052C507.653 187.49 513.922 193.412 517.157 200.431C520.392 207.45 521.201 215.565 521.606 223.461C522.01 231.357 522.212 239.473 524.234 246.93C524.437 247.807 524.841 248.904 525.65 249.123C526.863 249.562 527.874 248.246 528.481 246.93C535.154 233.551 539.4 218.855 540.816 203.721C541.625 194.948 541.423 186.613 536.974 179.375C532.323 171.918 520.999 166.434 515.539 171.26Z" fill="#1A202C"/>
<path d="M529.694 207.889L533.334 296.719C533.94 311.853 532.12 334.225 510.079 334.225C490.869 332.69 485.207 313.169 484.802 299.132C484.6 292.552 484.196 286.849 484.196 286.191C484.196 286.191 463.368 285.095 460.739 262.723C459.526 251.975 458.717 229.603 458.312 209.205C457.706 187.491 472.872 168.848 492.689 166.654L494.711 166.435C516.348 165.338 529.087 184.42 529.694 207.889Z" fill="#FFAA8C"/>
<path d="M483.993 285.753C483.993 285.753 497.136 285.315 510.078 274.348C510.078 274.348 505.225 291.237 484.599 291.456L483.993 285.753Z" fill="#EB996E"/>
<path d="M465.791 223.461C465.993 225.216 467.409 226.532 469.027 226.313C470.644 226.313 471.858 224.777 471.858 223.023C471.655 221.268 470.24 219.952 468.622 220.171C466.802 220.391 465.589 221.707 465.791 223.461Z" fill="#263238"/>
<path d="M463.769 219.732C464.174 220.17 466.196 217.977 469.431 217.758C472.667 217.319 475.093 218.854 475.295 218.416C475.497 218.196 475.093 217.538 473.88 216.88C472.869 216.222 471.049 215.564 469.027 215.784C467.005 216.003 465.387 217.1 464.578 217.977C463.769 218.635 463.567 219.512 463.769 219.732Z" fill="#263238"/>
<path d="M496.932 221.048C497.135 222.802 498.55 224.118 500.168 223.899C501.786 223.899 502.999 222.364 502.999 220.609C502.797 218.854 501.381 217.538 499.763 217.758C497.944 217.977 496.73 219.293 496.932 221.048Z" fill="#263238"/>
<path d="M494.912 216.662C495.316 217.1 497.338 214.907 500.574 214.688C503.809 214.249 506.236 215.784 506.438 215.346C506.64 215.126 506.236 214.468 505.022 213.81C504.011 213.152 502.192 212.494 500.169 212.714C498.147 212.933 496.53 214.03 495.721 214.907C494.912 215.784 494.71 216.442 494.912 216.662Z" fill="#263238"/>
<path d="M486.014 243.42C486.014 243.201 483.991 242.981 480.756 242.981C479.947 242.981 479.138 242.981 478.936 242.323C478.734 241.665 478.936 240.788 479.138 239.691C479.745 237.498 480.352 235.085 480.958 232.673C483.385 222.802 485.002 214.687 484.598 214.687C484.194 214.687 481.969 222.583 479.543 232.453C478.936 234.866 478.329 237.279 477.925 239.472C477.723 240.569 477.318 241.665 477.925 242.981C478.127 243.639 478.936 244.078 479.341 244.078C479.947 244.297 480.352 244.078 480.756 244.078C483.991 243.859 486.014 243.639 486.014 243.42Z" fill="#263238"/>
<path d="M495.518 244.736C494.911 244.736 495.316 248.465 492.687 251.536C490.058 254.606 486.216 254.606 486.418 255.045C486.418 255.264 487.227 255.703 488.845 255.484C490.463 255.264 492.485 254.606 494.103 252.852C495.72 251.097 496.327 248.684 496.327 247.149C496.125 245.614 495.72 244.736 495.518 244.736Z" fill="#263238"/>
<path d="M492.689 203.283C493.093 204.16 496.126 203.283 499.968 203.502C503.81 203.502 506.843 204.38 507.248 203.502C507.45 203.064 506.843 202.186 505.428 201.528C504.215 200.87 502.193 200.212 499.968 200.212C497.744 200.212 495.722 200.87 494.508 201.528C493.295 202.186 492.689 202.844 492.689 203.283Z" fill="#263238"/>
<path d="M463.974 209.643C464.58 210.301 466.805 209.205 469.231 208.985C471.86 208.547 474.084 208.985 474.489 208.108C474.691 207.669 474.287 207.011 473.276 206.353C472.265 205.695 470.647 205.257 468.827 205.476C467.007 205.695 465.592 206.573 464.783 207.45C463.974 208.327 463.772 209.205 463.974 209.643Z" fill="#263238"/>
<path d="M529.492 224.559C529.897 224.339 543.243 218.417 544.254 233.771C545.265 249.124 530.908 247.15 530.908 246.711C530.908 246.053 529.492 224.559 529.492 224.559Z" fill="#FFBE9D"/>
<path d="M534.749 240.351C534.749 240.351 534.952 240.571 535.356 240.79C535.76 241.009 536.569 241.009 537.176 240.79C538.591 240.132 539.805 237.5 539.602 234.649C539.602 233.333 539.198 232.016 538.591 230.92C537.985 229.823 537.378 229.165 536.569 228.946C535.76 228.726 535.356 229.384 535.154 229.823C534.952 230.262 535.154 230.481 534.952 230.701C534.952 230.701 534.547 230.481 534.749 229.823C534.749 229.604 534.952 229.165 535.154 228.726C535.558 228.507 535.963 228.288 536.569 228.288C537.58 228.288 538.794 229.384 539.4 230.481C540.007 231.578 540.411 233.113 540.614 234.649C540.816 237.719 539.4 240.79 537.58 241.448C536.569 241.887 535.76 241.448 535.356 241.229C534.952 240.79 534.749 240.571 534.749 240.351Z" fill="#EB996E"/>
<path d="M453.46 205.038C462.762 206.574 472.67 202.845 479.141 195.607C483.792 190.343 486.825 183.324 492.892 180.473C496.936 178.499 501.789 178.938 505.833 180.912C509.878 182.886 513.315 185.956 516.551 189.466C513.72 201.31 517.562 213.592 521.404 224.998C521.808 226.314 522.415 227.63 523.426 228.288C525.246 229.384 527.672 228.068 528.886 226.314C530.908 223.462 531.514 219.514 531.717 216.005C532.323 207.67 531.717 199.116 529.088 191.22C526.661 183.324 522.213 176.086 516.146 170.822C508.462 164.461 498.554 161.829 488.847 163.145C479.141 164.461 470.244 169.287 463.369 176.525C460.133 179.815 457.1 183.763 455.887 188.369" fill="#1A202C"/>
<path d="M733.529 702.197C726.25 698.249 717.757 697.591 709.87 699.126C705.624 700.004 701.175 701.32 698.142 704.829C695.311 708.338 694.704 714.48 697.94 717.55C699.962 719.305 702.793 719.524 705.422 719.524C711.69 719.524 718.566 718.208 723.621 722.376C726.452 724.788 728.474 728.517 731.71 729.833C735.147 730.93 738.787 728.736 740.607 725.446C742.427 722.156 742.427 717.989 741.618 714.48C741.82 714.26 740.809 706.145 733.529 702.197Z" fill="#2FE6A7"/>
<path d="M750.109 667.542C745.661 674.341 737.168 672.148 733.124 667.98C729.079 663.813 727.462 657.672 725.844 651.969C722.406 638.809 718.766 624.991 721.395 611.612C722.204 607.664 723.619 603.716 726.248 600.645C728.877 597.574 732.921 595.82 736.561 596.916C740.808 598.232 743.639 602.838 745.459 607.006C751.121 619.946 754.154 633.984 754.154 648.24C754.356 655.04 753.547 662.058 750.109 667.542Z" fill="#2FE6A7"/>
<path d="M762.242 677.412C757.389 671.271 756.58 662.278 758.602 654.601C760.826 646.924 765.477 640.344 771.139 634.861C777.61 628.5 785.294 623.675 793.585 620.604C796.82 619.288 800.258 618.411 803.696 618.85C807.133 619.288 810.571 621.043 812.189 624.333C814.615 629.158 812.189 635.08 809.762 639.906C805.516 648.46 800.46 656.575 795.001 664.252C790.552 670.393 785.497 676.535 778.823 679.167C772.15 682.018 765.073 681.579 761.635 676.535" fill="#2FE6A7"/>
<path d="M750.514 770.628C750.514 770.628 750.312 769.531 750.11 767.557C749.907 765.364 749.705 762.513 749.301 759.003C748.896 755.494 748.492 751.107 747.481 746.501C746.672 741.895 745.054 736.851 743.234 731.806C741.414 726.761 738.988 722.155 736.359 718.646C733.73 714.917 730.495 712.285 727.664 710.75C724.833 709.215 722.204 708.557 720.384 708.337C718.564 708.118 717.553 707.899 717.553 707.899C717.553 707.899 718.564 707.899 720.384 707.899C722.204 708.118 725.035 708.557 728.068 710.092C731.101 711.627 734.539 714.259 737.37 717.988C740.201 721.717 742.628 726.323 744.448 731.587C746.267 736.631 747.683 741.676 748.492 746.501C749.301 751.107 749.705 755.494 750.11 759.003C750.312 762.513 750.514 765.583 750.514 767.557C750.514 769.531 750.514 770.628 750.514 770.628Z" fill="#1A202C"/>
<path d="M749.907 764.048C749.907 764.048 749.907 763.61 749.907 762.513C749.907 761.416 749.907 760.1 749.907 758.346C749.907 754.836 749.907 749.572 749.705 743.212C749.503 730.49 748.492 716.672 746.47 697.371C744.65 679.166 742.223 657.891 739.594 644.073C738.988 641.002 738.381 638.151 737.977 635.738C737.37 633.325 736.966 631.132 736.561 629.377C736.157 627.842 735.955 626.526 735.752 625.429C735.55 624.552 735.55 624.113 735.55 624.113C735.55 624.113 735.752 624.552 735.955 625.429C736.157 626.526 736.561 627.842 736.966 629.377C737.37 631.132 737.977 633.106 738.583 635.738C739.19 638.151 739.797 641.002 740.403 644.073C743.032 656.575 745.661 674.122 747.683 693.423C749.705 712.944 750.514 730.49 750.514 743.431C750.514 749.792 750.514 755.056 750.312 758.565C750.312 760.32 750.11 761.636 750.11 762.732C749.907 763.61 749.907 764.048 749.907 764.048Z" fill="#1A202C"/>
<path d="M749.907 729.832C749.907 729.832 749.907 728.297 749.907 725.445C750.109 722.594 750.311 718.646 751.12 713.821C751.929 708.995 752.94 703.073 754.558 696.932C755.367 694.081 756.984 687.062 761.029 676.753C766.488 662.716 773.768 651.311 780.239 644.292C781.654 642.318 783.474 641.002 784.688 639.686C785.294 639.028 785.901 638.37 786.71 637.931C787.316 637.493 787.923 637.054 788.53 636.615C790.552 635.08 791.765 634.203 791.967 634.203C792.17 634.422 787.316 637.712 781.048 644.731C774.779 651.969 767.702 663.155 762.242 676.973C759.209 684.43 757.187 691.229 755.569 696.932C753.951 703.073 752.738 708.995 751.929 713.821C751.12 718.646 750.716 722.594 750.311 725.445C750.109 728.516 749.907 729.832 749.907 729.832Z" fill="#1A202C"/>
<path d="M780.24 790.149L777.005 836.867H721.598L718.363 790.149H780.24Z" fill="#FFD66B"/>
<path d="M711.687 771.725H785.495V790.149H711.687V771.725Z" fill="#FFD66B"/>
<path d="M777.59 845.682L780.839 836.908H718.153L721.784 845.682H777.59Z" fill="#FFD66B"/>
<path d="M719.575 805.284C719.575 805.284 719.575 805.503 719.777 805.723C719.98 805.942 720.182 806.381 720.586 806.819C721.395 807.916 722.406 809.451 723.822 811.206L724.024 811.425C726.046 808.355 728.675 804.407 731.91 799.581H731.506C733.932 803.31 736.561 807.258 739.392 811.645L739.594 812.083L739.797 811.645C742.628 807.916 745.863 803.968 749.098 799.581H748.492C748.694 799.801 748.896 800.02 749.098 800.239C751.929 804.187 754.76 807.916 757.389 811.425L757.591 811.864L757.794 811.425C760.625 807.039 763.253 803.091 765.68 799.362H765.275C769.117 804.187 772.353 808.135 774.982 811.206L775.184 811.425L775.386 811.206C776.599 808.793 777.61 807.039 778.419 805.723C778.824 805.065 779.026 804.626 779.228 804.187C779.43 803.749 779.43 803.749 779.43 803.749C779.43 803.749 779.228 803.968 779.026 804.187C778.824 804.626 778.419 805.065 778.217 805.503C777.408 806.819 776.397 808.574 774.982 810.987H775.184C772.757 807.916 769.522 803.749 765.68 798.923L765.478 798.704L765.275 798.923C762.849 802.652 760.22 806.6 757.389 810.767H757.996C755.367 807.258 752.536 803.31 749.705 799.581C749.503 799.362 749.301 799.143 749.098 798.923L748.896 798.485L748.694 798.923C745.459 803.091 742.425 807.258 739.392 810.987H739.999C737.168 806.6 734.539 802.652 732.112 799.143L731.91 798.704L731.708 799.143C728.675 803.968 725.844 808.135 724.024 811.206H724.226C722.811 809.451 721.597 807.916 720.788 806.819C720.384 806.381 720.182 805.942 719.98 805.723C719.575 805.503 719.575 805.284 719.575 805.284Z" fill="#1A202C"/>
<path d="M748.695 790.149C731.608 790.149 717.756 789.953 717.756 789.71C717.756 789.468 731.608 789.272 748.695 789.272C765.782 789.272 779.633 789.468 779.633 789.71C779.633 789.953 765.782 790.149 748.695 790.149Z" fill="#455A64"/>
<path d="M174.813 276.54L213.234 451.13H202.516L164.5 276.54H174.813Z" fill="white"/>
<path d="M189.576 391.471C190.183 394.761 171.983 489.951 171.983 489.951H180.679L194.429 414.501L189.576 391.471Z" fill="white"/>
<path d="M61.3704 615.85H241.745V823.34H61.3704V615.85Z" fill="#99B2C6"/>
<path d="M52.2712 646.118H61.1686V655.769H52.2712V646.118Z" fill="white"/>
<path d="M52.2712 676.605H61.1686V686.256H52.2712V676.605Z" fill="white"/>
<path d="M52.2712 707.312H61.1686V716.962H52.2712V707.312Z" fill="white"/>
<path d="M52.2712 737.798H61.1686V747.449H52.2712V737.798Z" fill="white"/>
<path d="M52.0683 709.943C52.0683 709.943 51.0572 709.724 49.4395 709.285C47.6196 709.066 45.1931 708.408 41.7554 708.408C38.52 708.408 34.4758 709.066 30.8359 711.479C29.016 712.795 27.1961 714.549 26.185 716.962C24.9717 719.375 24.5673 722.007 24.7695 724.858C24.9717 727.49 25.7805 730.122 26.9938 732.315C28.2071 734.509 29.8249 736.263 31.6448 737.579C35.0824 740.431 38.9244 741.527 42.1598 742.185C45.3953 742.624 48.0241 742.624 49.844 742.405C51.6639 742.185 52.675 741.966 52.675 741.966C52.675 741.966 51.6639 741.966 49.844 741.966C48.0241 741.966 45.3953 741.966 42.3621 741.308C39.3289 740.65 35.689 739.334 32.2514 736.702C29.016 734.07 25.9828 729.683 25.7806 724.639C25.5784 722.007 25.9828 719.594 26.9938 717.401C28.0049 715.207 29.6226 713.672 31.2403 712.356C34.678 709.943 38.52 709.285 41.7554 709.066C44.9909 709.066 47.4174 709.285 49.2373 709.505C51.0572 709.943 52.0683 710.163 52.0683 709.943Z" fill="white"/>
<path d="M54.2932 679.676C54.2932 679.676 54.091 679.456 53.4844 679.018C52.8778 678.798 52.0689 678.36 50.8556 677.921C48.4291 677.044 44.7892 676.386 40.5428 677.263C39.5317 677.482 38.3184 677.921 37.3073 678.579C36.2963 679.237 35.2852 680.553 34.8808 682.088C34.0719 684.94 35.083 688.23 36.9029 690.862C37.914 692.178 39.1273 693.274 40.5428 693.932C41.9582 694.59 43.9804 694.59 45.3959 693.713C46.8114 692.836 48.2268 691.081 48.2268 689.107C48.2268 687.133 47.0136 685.159 45.3959 684.282C43.7782 683.404 41.9582 683.404 40.1383 683.624C38.5206 684.062 36.9029 684.94 35.6896 686.036C33.0609 688.23 31.4431 691.52 31.2409 694.81C30.8365 698.1 32.0498 701.17 33.4653 703.583C35.083 705.996 37.1051 707.531 38.9251 708.628C42.9693 710.821 46.6092 711.26 49.0357 711.479C50.249 711.479 51.2601 711.699 51.8667 711.699C52.4734 711.699 52.8778 711.699 52.8778 711.699C52.8778 711.699 51.4623 711.479 49.0357 711.26C46.6092 710.821 43.1715 710.382 39.3295 708.189C37.5095 707.092 35.4874 705.557 34.0719 703.364C32.6564 701.17 31.6453 698.319 32.0498 695.248C32.4542 692.178 33.8697 689.326 36.2963 687.352C37.5095 686.256 38.925 685.598 40.3405 685.159C41.756 684.72 43.3738 684.94 44.7892 685.598C46.2047 686.256 47.0136 687.791 47.0136 689.326C47.0136 690.862 46.0025 692.178 44.7892 693.055C43.576 693.932 41.9583 693.932 40.745 693.274C39.3295 692.836 38.3184 691.739 37.5095 690.642C35.6896 688.449 34.8808 685.378 35.4874 682.746C36.0941 680.114 38.3184 678.798 40.5428 678.36C44.7892 677.263 48.2269 677.921 50.6534 678.579C53.08 679.018 54.2932 679.895 54.2932 679.676Z" fill="white"/>
<path d="M54.0914 649.846C54.0914 649.846 53.4847 649.627 52.0692 649.408C50.856 649.408 48.8338 649.408 46.6095 650.285C44.3851 651.162 41.9586 652.698 39.9364 655.11C37.9143 657.742 36.4988 661.252 36.4988 665.2C36.2966 669.148 37.5098 672.876 39.3298 675.508C41.1497 678.14 43.5763 679.895 45.8006 680.772C48.025 681.65 49.8449 681.869 51.0582 681.869C52.2715 681.869 53.0803 681.65 53.0803 681.65C53.0803 681.43 50.0471 682.088 46.0028 679.895C43.9807 678.798 41.7563 677.263 40.1386 674.631C38.3187 671.999 37.3076 668.709 37.5099 664.98C37.7121 661.252 38.9254 657.962 40.7453 655.549C42.5652 653.136 44.9918 651.601 47.0139 650.724C51.2604 649.408 54.0914 650.066 54.0914 649.846Z" fill="white"/>
<path d="M188.158 505.744C188.158 505.744 187.349 507.06 186.54 509.692C185.731 512.324 184.922 516.272 184.114 521.536C183.305 526.8 182.698 533.161 182.091 540.399C181.485 547.856 180.878 556.191 179.867 565.622C179.665 568.035 179.26 570.228 178.856 572.641C178.452 575.053 177.845 577.466 176.834 579.659C175.823 581.853 174.205 583.827 172.385 585.581C170.565 587.336 168.745 589.091 166.521 590.407C162.274 593.258 157.219 595.232 151.962 595.89C146.704 596.548 141.042 595.671 135.987 592.819C130.931 590.187 126.887 584.923 125.674 578.782C125.067 575.711 125.269 572.421 126.28 569.351C127.292 566.28 129.314 563.867 131.943 562.113C134.369 560.358 137.402 559.261 140.435 559.042C143.469 558.823 146.704 559.7 149.131 561.893C150.344 562.99 151.355 564.087 151.962 565.622C152.568 567.157 152.77 568.693 152.568 570.447C151.962 573.737 149.737 576.589 146.906 578.124C144.075 579.879 140.84 580.537 137.604 580.975C134.369 581.414 131.134 581.633 128.1 581.633C121.63 581.853 115.361 581.195 109.295 580.537C96.9596 579.001 85.029 576.808 73.705 576.808C62.381 576.589 51.2593 578.343 41.9575 583.388C37.3066 585.801 33.2623 589.091 30.2291 593.039C26.9937 596.987 24.9716 601.593 24.1627 606.199C22.3428 615.63 24.3649 624.404 27.6004 630.984C31.038 637.564 35.6889 641.95 39.5309 644.802C43.5752 647.653 47.0128 649.408 49.4394 650.285C51.8659 651.162 53.0793 651.601 53.0793 651.601C53.0793 651.601 52.6748 651.382 52.0682 651.162C51.4616 650.943 50.4505 650.504 49.4394 650.066C47.0128 648.969 43.5752 647.434 39.7332 644.363C35.8911 641.292 31.2402 636.906 28.0047 630.545C24.7693 624.184 22.9495 615.411 24.7694 606.418C25.7804 602.032 27.6004 597.425 30.8358 593.697C33.869 589.968 37.9132 586.678 42.3619 584.485C51.4615 579.659 62.381 577.905 73.705 578.124C85.029 578.343 96.9596 580.537 109.295 581.853C115.563 582.511 121.832 583.169 128.303 582.949C131.538 582.949 134.773 582.73 138.009 582.291C141.244 581.853 144.682 581.195 147.513 579.44C150.546 577.685 152.973 574.615 153.579 570.886C153.984 569.131 153.579 567.157 152.973 565.403C152.164 563.648 151.153 562.332 149.737 561.235C147.108 559.042 143.671 558.165 140.435 558.165C137.2 558.384 133.965 559.481 131.336 561.455C128.707 563.429 126.483 566.061 125.269 569.351C124.056 572.641 124.056 576.15 124.663 579.221C126.078 585.801 130.325 591.065 135.582 593.916C140.84 596.767 146.704 597.645 151.962 596.987C157.421 596.329 162.477 594.355 166.925 591.503C169.15 589.968 171.172 588.433 172.79 586.459C174.61 584.485 176.227 582.73 177.441 580.317C178.452 577.905 179.058 575.492 179.463 573.079C179.867 570.667 180.272 568.254 180.474 566.061C181.485 556.849 182.091 548.295 182.698 540.837C183.305 533.38 183.911 527.019 184.518 521.975C185.125 516.711 185.933 512.763 186.742 510.131C187.147 508.815 187.349 507.718 187.753 507.279C187.956 505.963 188.158 505.744 188.158 505.744Z" fill="white"/>
<path d="M71.482 814.566C71.482 814.566 71.482 814.347 71.482 813.689C71.482 813.031 71.482 812.153 71.482 811.057C71.482 808.644 71.482 805.354 71.482 800.748C71.482 791.755 71.482 778.595 71.6843 761.926C71.6843 728.587 71.8865 680.992 71.8865 623.965L71.482 624.404C119.204 624.404 175.015 624.404 234.668 624.404L234.062 623.746C234.062 693.933 234.062 759.294 234.062 814.347L234.466 813.908C185.53 813.908 144.886 814.127 116.373 814.127C102.016 814.127 90.8946 814.127 83.2104 814.347C79.3684 814.347 76.5374 814.347 74.5152 814.347C72.4931 814.566 71.482 814.566 71.482 814.566C71.482 814.566 72.4931 814.566 74.5152 814.566C76.5374 814.566 79.3684 814.566 83.2104 814.566C90.8946 814.566 102.016 814.566 116.171 814.786C144.683 814.786 185.53 815.005 234.668 815.005H235.073V814.566C235.073 759.513 235.073 693.933 235.073 623.965V623.307H234.466C175.015 623.307 119.204 623.307 71.2799 623.307H70.8754V623.746C70.8754 680.773 71.0776 728.587 71.0776 761.926C71.0776 778.595 71.0777 791.755 71.2799 800.748C71.2799 805.135 71.2799 808.644 71.2799 810.837C71.2799 811.934 71.2799 812.811 71.2799 813.469C71.4821 814.347 71.482 814.566 71.482 814.566Z" fill="white"/>
<path d="M118.192 648.312C117.745 648.312 117.383 647.919 117.383 647.435C117.383 646.95 117.745 646.557 118.192 646.557C118.639 646.557 119.001 646.95 119.001 647.435C119.001 647.919 118.639 648.312 118.192 648.312Z" fill="#263238"/>
<path d="M113.744 648.311C113.297 648.311 112.935 647.918 112.935 647.434C112.935 646.949 113.297 646.557 113.744 646.557C114.191 646.557 114.553 646.949 114.553 647.434C114.553 647.918 114.191 648.311 113.744 648.311Z" fill="#263238"/>
<path d="M109.092 648.311C108.646 648.311 108.284 647.918 108.284 647.434C108.284 646.949 108.646 646.557 109.092 646.557C109.539 646.557 109.901 646.949 109.901 647.434C109.901 647.918 109.539 648.311 109.092 648.311Z" fill="#263238"/>
<path d="M104.314 648.444C103.868 648.444 103.505 648.051 103.505 647.567C103.505 647.082 103.868 646.689 104.314 646.689C104.761 646.689 105.123 647.082 105.123 647.567C105.123 648.051 104.761 648.444 104.314 648.444Z" fill="#263238"/>
<path d="M99.6642 648.444C99.2175 648.444 98.8553 648.051 98.8553 647.567C98.8553 647.082 99.2175 646.689 99.6642 646.689C100.111 646.689 100.473 647.082 100.473 647.567C100.473 648.051 100.111 648.444 99.6642 648.444Z" fill="#263238"/>
<path d="M95.1398 648.311C94.6931 648.311 94.331 647.918 94.331 647.434C94.331 646.949 94.6931 646.557 95.1398 646.557C95.5865 646.557 95.9487 646.949 95.9487 647.434C95.9487 647.918 95.5865 648.311 95.1398 648.311Z" fill="#263238"/>
<path d="M90.693 648.311C90.2463 648.311 89.8842 647.918 89.8842 647.434C89.8842 646.949 90.2463 646.557 90.693 646.557C91.1397 646.557 91.5019 646.949 91.5019 647.434C91.5019 647.918 91.1397 648.311 90.693 648.311Z" fill="#263238"/>
<path d="M92.715 651.821C92.2683 651.821 91.9062 651.428 91.9062 650.944C91.9062 650.459 92.2683 650.067 92.715 650.067C93.1617 650.067 93.5239 650.459 93.5239 650.944C93.5239 651.428 93.1617 651.821 92.715 651.821Z" fill="#263238"/>
<path d="M97.2376 651.954C96.7908 651.954 96.4287 651.561 96.4287 651.077C96.4287 650.592 96.7908 650.199 97.2376 650.199C97.6843 650.199 98.0464 650.592 98.0464 651.077C98.0464 651.561 97.6843 651.954 97.2376 651.954Z" fill="#263238"/>
<path d="M102.089 651.954C101.642 651.954 101.28 651.561 101.28 651.077C101.28 650.592 101.642 650.199 102.089 650.199C102.536 650.199 102.898 650.592 102.898 651.077C102.898 651.561 102.536 651.954 102.089 651.954Z" fill="#263238"/>
<path d="M106.741 651.954C106.294 651.954 105.932 651.561 105.932 651.077C105.932 650.592 106.294 650.199 106.741 650.199C107.188 650.199 107.55 650.592 107.55 651.077C107.55 651.561 107.188 651.954 106.741 651.954Z" fill="#263238"/>
<path d="M111.521 651.821C111.074 651.821 110.712 651.428 110.712 650.944C110.712 650.459 111.074 650.067 111.521 650.067C111.967 650.067 112.329 650.459 112.329 650.944C112.329 651.428 111.967 651.821 111.521 651.821Z" fill="#263238"/>
<path d="M116.372 651.821C115.926 651.821 115.564 651.428 115.564 650.944C115.564 650.459 115.926 650.067 116.372 650.067C116.819 650.067 117.181 650.459 117.181 650.944C117.181 651.428 116.819 651.821 116.372 651.821Z" fill="#263238"/>
<path d="M118.193 655.549C117.746 655.549 117.384 655.156 117.384 654.672C117.384 654.187 117.746 653.794 118.193 653.794C118.639 653.794 119.001 654.187 119.001 654.672C119.001 655.156 118.639 655.549 118.193 655.549Z" fill="#263238"/>
<path d="M113.744 655.549C113.297 655.549 112.935 655.156 112.935 654.672C112.935 654.187 113.297 653.794 113.744 653.794C114.191 653.794 114.553 654.187 114.553 654.672C114.553 655.156 114.191 655.549 113.744 655.549Z" fill="#263238"/>
<path d="M109.092 655.549C108.646 655.549 108.284 655.156 108.284 654.672C108.284 654.187 108.646 653.794 109.092 653.794C109.539 653.794 109.901 654.187 109.901 654.672C109.901 655.156 109.539 655.549 109.092 655.549Z" fill="#263238"/>
<path d="M104.314 655.682C103.868 655.682 103.505 655.289 103.505 654.804C103.505 654.32 103.868 653.927 104.314 653.927C104.761 653.927 105.123 654.32 105.123 654.804C105.123 655.289 104.761 655.682 104.314 655.682Z" fill="#263238"/>
<path d="M99.6642 655.682C99.2175 655.682 98.8553 655.289 98.8553 654.804C98.8553 654.32 99.2175 653.927 99.6642 653.927C100.111 653.927 100.473 654.32 100.473 654.804C100.473 655.289 100.111 655.682 99.6642 655.682Z" fill="#263238"/>
<path d="M95.1398 655.549C94.6931 655.549 94.331 655.156 94.331 654.672C94.331 654.187 94.6931 653.794 95.1398 653.794C95.5865 653.794 95.9487 654.187 95.9487 654.672C95.9487 655.156 95.5865 655.549 95.1398 655.549Z" fill="#263238"/>
<path d="M90.693 655.549C90.2463 655.549 89.8842 655.156 89.8842 654.672C89.8842 654.187 90.2463 653.794 90.693 653.794C91.1397 653.794 91.5019 654.187 91.5019 654.672C91.5019 655.156 91.1397 655.549 90.693 655.549Z" fill="#263238"/>
<path d="M92.715 658.839C92.2683 658.839 91.9062 658.446 91.9062 657.961C91.9062 657.477 92.2683 657.084 92.715 657.084C93.1617 657.084 93.5239 657.477 93.5239 657.961C93.5239 658.446 93.1617 658.839 92.715 658.839Z" fill="#263238"/>
<path d="M97.2376 658.971C96.7908 658.971 96.4287 658.578 96.4287 658.094C96.4287 657.609 96.7908 657.217 97.2376 657.217C97.6843 657.217 98.0464 657.609 98.0464 658.094C98.0464 658.578 97.6843 658.971 97.2376 658.971Z" fill="#263238"/>
<path d="M102.089 658.971C101.642 658.971 101.28 658.578 101.28 658.094C101.28 657.609 101.642 657.217 102.089 657.217C102.536 657.217 102.898 657.609 102.898 658.094C102.898 658.578 102.536 658.971 102.089 658.971Z" fill="#263238"/>
<path d="M106.741 658.971C106.294 658.971 105.932 658.578 105.932 658.094C105.932 657.609 106.294 657.217 106.741 657.217C107.188 657.217 107.55 657.609 107.55 658.094C107.55 658.578 107.188 658.971 106.741 658.971Z" fill="#263238"/>
<path d="M111.521 658.839C111.074 658.839 110.712 658.446 110.712 657.961C110.712 657.477 111.074 657.084 111.521 657.084C111.967 657.084 112.329 657.477 112.329 657.961C112.329 658.446 111.967 658.839 111.521 658.839Z" fill="#263238"/>
<path d="M116.372 658.839C115.926 658.839 115.564 658.446 115.564 657.961C115.564 657.477 115.926 657.084 116.372 657.084C116.819 657.084 117.181 657.477 117.181 657.961C117.181 658.446 116.819 658.839 116.372 658.839Z" fill="#263238"/>
<path d="M118.193 662.788C117.746 662.788 117.384 662.395 117.384 661.91C117.384 661.426 117.746 661.033 118.193 661.033C118.639 661.033 119.001 661.426 119.001 661.91C119.001 662.395 118.639 662.788 118.193 662.788Z" fill="#263238"/>
<path d="M113.744 662.788C113.297 662.788 112.935 662.395 112.935 661.91C112.935 661.426 113.297 661.033 113.744 661.033C114.191 661.033 114.553 661.426 114.553 661.91C114.553 662.395 114.191 662.788 113.744 662.788Z" fill="#263238"/>
<path d="M109.092 662.788C108.646 662.788 108.284 662.395 108.284 661.91C108.284 661.426 108.646 661.033 109.092 661.033C109.539 661.033 109.901 661.426 109.901 661.91C109.901 662.395 109.539 662.788 109.092 662.788Z" fill="#263238"/>
<path d="M104.314 662.921C103.868 662.921 103.505 662.528 103.505 662.044C103.505 661.559 103.868 661.166 104.314 661.166C104.761 661.166 105.123 661.559 105.123 662.044C105.123 662.528 104.761 662.921 104.314 662.921Z" fill="#263238"/>
<path d="M99.6642 662.921C99.2175 662.921 98.8553 662.528 98.8553 662.044C98.8553 661.559 99.2175 661.166 99.6642 661.166C100.111 661.166 100.473 661.559 100.473 662.044C100.473 662.528 100.111 662.921 99.6642 662.921Z" fill="#263238"/>
<path d="M95.1398 662.788C94.6931 662.788 94.331 662.395 94.331 661.91C94.331 661.426 94.6931 661.033 95.1398 661.033C95.5865 661.033 95.9487 661.426 95.9487 661.91C95.9487 662.395 95.5865 662.788 95.1398 662.788Z" fill="#263238"/>
<path d="M90.693 662.788C90.2463 662.788 89.8842 662.395 89.8842 661.91C89.8842 661.426 90.2463 661.033 90.693 661.033C91.1397 661.033 91.5019 661.426 91.5019 661.91C91.5019 662.395 91.1397 662.788 90.693 662.788Z" fill="#263238"/>
<path d="M92.715 666.078C92.2683 666.078 91.9062 665.685 91.9062 665.2C91.9062 664.716 92.2683 664.323 92.715 664.323C93.1617 664.323 93.5239 664.716 93.5239 665.2C93.5239 665.685 93.1617 666.078 92.715 666.078Z" fill="#263238"/>
<path d="M97.2376 666.211C96.7908 666.211 96.4287 665.818 96.4287 665.334C96.4287 664.849 96.7908 664.457 97.2376 664.457C97.6843 664.457 98.0464 664.849 98.0464 665.334C98.0464 665.818 97.6843 666.211 97.2376 666.211Z" fill="#263238"/>
<path d="M102.089 666.211C101.642 666.211 101.28 665.818 101.28 665.334C101.28 664.849 101.642 664.457 102.089 664.457C102.536 664.457 102.898 664.849 102.898 665.334C102.898 665.818 102.536 666.211 102.089 666.211Z" fill="#263238"/>
<path d="M106.741 666.211C106.294 666.211 105.932 665.818 105.932 665.334C105.932 664.849 106.294 664.457 106.741 664.457C107.188 664.457 107.55 664.849 107.55 665.334C107.55 665.818 107.188 666.211 106.741 666.211Z" fill="#263238"/>
<path d="M111.521 666.078C111.074 666.078 110.712 665.685 110.712 665.2C110.712 664.716 111.074 664.323 111.521 664.323C111.967 664.323 112.329 664.716 112.329 665.2C112.329 665.685 111.967 666.078 111.521 666.078Z" fill="#263238"/>
<path d="M116.372 666.078C115.926 666.078 115.564 665.685 115.564 665.2C115.564 664.716 115.926 664.323 116.372 664.323C116.819 664.323 117.181 664.716 117.181 665.2C117.181 665.685 116.819 666.078 116.372 666.078Z" fill="#263238"/>
<path d="M775.79 489.953V511.009H668.819V823.34H658.91V511.009L211.816 513.421V823.34H202.11V512.763L133.155 513.421V488.198L775.79 489.953Z" fill="#605CFF"/>
<path d="M707.239 506.842L664.976 539.742L668.818 543.69L711.283 508.815L707.239 506.842Z" fill="#FF69B4"/>
<path d="M162.275 509.912L211.413 547.857L207.773 551.586L158.433 511.886L162.275 509.912Z" fill="#FF69B4"/>
<path d="M509.474 482.276H620.085V491.049H509.474V482.276Z" fill="#263238"/>
</svg>
