<svg width="13" height="27" viewBox="0 0 13 27" fill="none" xmlns="http://www.w3.org/2000/svg">
<path d="M0.397446 14.3802H3.09824V26.5645C3.09824 26.8051 3.2761 27 3.49564 27H8.07496C8.29449 27 8.47236 26.8051 8.47236 26.5645V14.4376H11.5772C11.7791 14.4376 11.9489 14.2716 11.972 14.0519L12.4435 9.56623C12.4565 9.44283 12.4208 9.31922 12.3455 9.22662C12.2701 9.13397 12.1621 9.08092 12.0488 9.08092H8.47255V6.26906C8.47255 5.42146 8.889 4.99163 9.71056 4.99163C9.82764 4.99163 12.0488 4.99163 12.0488 4.99163C12.2684 4.99163 12.4462 4.79661 12.4462 4.55615V0.438697C12.4462 0.198123 12.2684 0.0032168 12.0488 0.0032168H8.8263C8.80359 0.00200391 8.75311 0 8.67871 0C8.11957 0 6.17603 0.120287 4.64077 1.66799C2.93973 3.38312 3.1762 5.43665 3.2327 5.79271V9.08081H0.397398C0.177862 9.08081 0 9.27572 0 9.51629V13.9447C4.81228e-05 14.1852 0.17791 14.3802 0.397446 14.3802Z" fill="#605CFF"/>
</svg>
