<svg width="18" height="17" viewBox="0 0 18 17" fill="none" xmlns="http://www.w3.org/2000/svg">
<path fill-rule="evenodd" clip-rule="evenodd" d="M7.02317 11.4207C7.5852 11.8321 8.27017 12.0809 8.99905 12.0809C10.931 12.0809 12.5029 10.3683 12.5029 8.26348C12.5029 7.46939 12.2746 6.72314 11.897 6.11083L10.9398 7.15367C11.0979 7.47896 11.1857 7.86166 11.1857 8.26348C11.1857 9.57421 10.2021 10.6458 8.99905 10.6458C8.63022 10.6458 8.27895 10.5501 7.98037 10.3779L7.02317 11.4207ZM14.7861 2.96349C16.0594 4.22638 17.1396 5.92937 17.9475 7.97678C18.0177 8.15856 18.0177 8.36904 17.9475 8.54125C16.0682 13.3058 12.7224 16.1569 8.99893 16.1569H8.99014C7.29528 16.1569 5.67067 15.5541 4.23925 14.4539L2.5356 16.3099C2.40388 16.4535 2.23702 16.5204 2.07017 16.5204C1.90332 16.5204 1.72769 16.4535 1.60474 16.3099C1.3852 16.0708 1.35007 15.6881 1.52571 15.4106L1.55205 15.3723L14.5402 1.22223C14.5577 1.20309 14.5753 1.18396 14.5841 1.16483L14.5841 1.16482C14.6016 1.14569 14.6192 1.12655 14.628 1.10742L15.4535 0.20809C15.7169 -0.0693633 16.1297 -0.0693633 16.3843 0.20809C16.6478 0.485543 16.6478 0.944776 16.3843 1.22223L14.7861 2.96349ZM5.48856 8.26745C5.48856 8.5162 5.5149 8.76496 5.55003 8.99457L2.3008 12.5345C1.42263 11.4247 0.658627 10.0852 0.0526901 8.54491C-0.0175634 8.37269 -0.0175634 8.16221 0.0526901 7.98043C1.93197 3.21589 5.2778 0.374389 8.99245 0.374389H9.00123C10.257 0.374389 11.4777 0.699679 12.6017 1.31199L9.66864 4.50748C9.45788 4.46922 9.22956 4.44051 9.00123 4.44051C7.06048 4.44051 5.48856 6.15307 5.48856 8.26745Z" fill="#1A202C"/>
</svg>
